<svg xmlns="http://www.w3.org/2000/svg" width="1520" height="260" viewBox="0 0 1520 260" role="img" aria-labelledby="title desc">
  <title id="title">Framein</title>
  <desc id="desc">Framein logo and wordmark on a quiet README header.</desc>
  <defs>
    <linearGradient id="bg" x1="0" y1="0" x2="1" y2="1">
      <stop offset="0" stop-color="#f8fbfa"/>
      <stop offset="1" stop-color="#eef5f2"/>
    </linearGradient>
    <linearGradient id="mark" x1="0" y1="0" x2="1" y2="1">
      <stop offset="0" stop-color="#1ec8a5"/>
      <stop offset="1" stop-color="#17a68d"/>
    </linearGradient>
  </defs>
  <rect width="1520" height="260" rx="18" fill="url(#bg)"/>
  <rect x="42" y="42" width="176" height="176" rx="28" fill="url(#mark)"/>
  <path d="M83 84h26v55c0 28 14 46 39 55-8 5-17 9-26 12-25-13-39-35-39-67V84Z" fill="#ffffff"/>
  <path d="M123 84h26v55c0 17 5 30 16 39 11-9 16-22 16-39V84h26v55c0 32-14 54-42 67-28-13-42-35-42-67V84Z" fill="#ffffff" opacity=".86"/>
  <text x="258" y="153" fill="#111827" font-family="Inter, ui-sans-serif, system-ui, -apple-system, Segoe UI, sans-serif" font-size="104" font-weight="760" letter-spacing="0">Framein</text>
  <text x="262" y="198" fill="#43605a" font-family="Inter, ui-sans-serif, system-ui, -apple-system, Segoe UI, sans-serif" font-size="30" font-weight="520" letter-spacing="0">One local work frame beneath the coding agents you already use.</text>
</svg>
